STARTFONT 2.3
FONT -FontForge-Zen Loop-Book-R-Normal--18-180-72-72-P-57-ISO10646-1
SIZE 18 72 72  2
FONTBOUNDINGBOX 15 21 -2 -5
COMMENT "Generated by fontforge, http://fontforge.sourceforge.net"
COMMENT "Copyright 2021 The Zen-Loop Project Authors (https://github.com/googlefonts/zen-loop)"
STARTPROPERTIES 40
FOUNDRY "FontForge"
FAMILY_NAME "Zen Loop"
WEIGHT_NAME "Book"
SLANT "R"
SETWIDTH_NAME "Normal"
ADD_STYLE_NAME ""
PIXEL_SIZE 18
POINT_SIZE 180
RESOLUTION_X 72
RESOLUTION_Y 72
SPACING "P"
AVERAGE_WIDTH 57
CHARSET_REGISTRY "ISO10646"
CHARSET_ENCODING "1"
FONTNAME_REGISTRY ""
CHARSET_COLLECTIONS "ISO10646-1"
BITS_PER_PIXEL 2
FONT_NAME "ZenLoop-Regular"
FACE_NAME "Zen Loop Regular"
COPYRIGHT "Copyright 2021 The Zen-Loop Project Authors (https://github.com/googlefonts/zen-loop)"
FONT_VERSION "1.000; ttfautohint (v1.8.3)"
FONT_ASCENT 14
FONT_DESCENT 4
UNDERLINE_POSITION -3
UNDERLINE_THICKNESS 1
X_HEIGHT 8
CAP_HEIGHT 12
RAW_ASCENT 800
RAW_DESCENT 200
NORM_SPACE 4
RELATIVE_WEIGHT 40
RELATIVE_SETWIDTH 50
SUPERSCRIPT_X 0
SUPERSCRIPT_Y 6
SUPERSCRIPT_SIZE 10
SUBSCRIPT_X 0
SUBSCRIPT_Y 1
SUBSCRIPT_SIZE 10
AVG_LOWERCASE_WIDTH 53
AVG_UPPERCASE_WIDTH 69
ENDPROPERTIES
CHARS 248
STARTCHAR CR
ENCODING 13
SWIDTH 600 0
DWIDTH 11 0
BBX 1 1 0 0
BITMAP
00
ENDCHAR
STARTCHAR space
ENCODING 32
SWIDTH 240 0
DWIDTH 4 0
BBX 1 1 0 0
BITMAP
00
ENDCHAR
STARTCHAR exclam
ENCODING 33
SWIDTH 141 0
DWIDTH 3 0
BBX 1 13 1 0
BITMAP
40
40
40
40
40
40
40
40
40
40
00
40
40
ENDCHAR
STARTCHAR quotedbl
ENCODING 34
SWIDTH 195 0
DWIDTH 4 0
BBX 2 4 1 9
BITMAP
50
50
50
10
ENDCHAR
STARTCHAR numbersign
ENCODING 35
SWIDTH 454 0
DWIDTH 8 0
BBX 8 13 0 0
BITMAP
0104
0104
0104
0104
1965
0410
0410
0410
5964
1410
1040
1040
1040
ENDCHAR
STARTCHAR dollar
ENCODING 36
SWIDTH 356 0
DWIDTH 6 0
BBX 6 16 0 -2
BITMAP
0100
1640
1110
5100
1100
1100
0500
0600
0140
0110
0110
4110
5110
1640
0100
0100
ENDCHAR
STARTCHAR percent
ENCODING 37
SWIDTH 470 0
DWIDTH 8 0
BBX 8 13 0 0
BITMAP
1500
1104
4114
5110
1110
1540
0040
0114
0141
0141
0441
0441
1014
ENDCHAR
STARTCHAR ampersand
ENCODING 38
SWIDTH 520 0
DWIDTH 9 0
BBX 9 13 0 0
BITMAP
015000
011000
011000
011000
014000
020000
050100
144400
104400
502000
402000
105400
154140
ENDCHAR
STARTCHAR quotesingle
ENCODING 39
SWIDTH 121 0
DWIDTH 2 0
BBX 1 3 1 10
BITMAP
40
40
40
ENDCHAR
STARTCHAR parenleft
ENCODING 40
SWIDTH 233 0
DWIDTH 4 0
BBX 3 15 1 -1
BITMAP
04
14
10
10
40
40
40
40
40
40
40
50
10
10
04
ENDCHAR
STARTCHAR parenright
ENCODING 41
SWIDTH 233 0
DWIDTH 4 0
BBX 3 15 0 -2
BITMAP
40
10
10
04
04
04
04
04
04
04
04
04
10
10
40
ENDCHAR
STARTCHAR asterisk
ENCODING 42
SWIDTH 313 0
DWIDTH 6 0
BBX 4 4 1 9
BITMAP
10
55
24
44
ENDCHAR
STARTCHAR plus
ENCODING 43
SWIDTH 577 0
DWIDTH 10 0
BBX 8 9 1 0
BITMAP
0040
0040
0040
0040
5595
0040
0040
0040
0040
ENDCHAR
STARTCHAR comma
ENCODING 44
SWIDTH 145 0
DWIDTH 3 0
BBX 2 3 0 -2
BITMAP
10
10
50
ENDCHAR
STARTCHAR hyphen
ENCODING 45
SWIDTH 286 0
DWIDTH 5 0
BBX 3 1 1 5
BITMAP
54
ENDCHAR
STARTCHAR period
ENCODING 46
SWIDTH 181 0
DWIDTH 3 0
BBX 1 2 1 0
BITMAP
40
40
ENDCHAR
STARTCHAR slash
ENCODING 47
SWIDTH 292 0
DWIDTH 5 0
BBX 5 15 0 -1
BITMAP
0040
0040
0040
0100
0100
0100
0400
0400
0400
1000
1000
1000
5000
4000
4000
ENDCHAR
STARTCHAR zero
ENCODING 48
SWIDTH 378 0
DWIDTH 7 0
BBX 6 13 0 0
BITMAP
0540
1050
1010
1010
5010
4010
4010
4010
5010
1010
1010
1050
0540
ENDCHAR
STARTCHAR one
ENCODING 49
SWIDTH 303 0
DWIDTH 5 0
BBX 5 13 0 0
BITMAP
1800
0400
0400
0400
0400
0400
0400
0400
0400
0400
0400
0400
5940
ENDCHAR
STARTCHAR two
ENCODING 50
SWIDTH 343 0
DWIDTH 6 0
BBX 6 13 0 0
BITMAP
1540
1040
0010
0010
0010
0040
0040
0100
0400
1400
1000
4000
5550
ENDCHAR
STARTCHAR three
ENCODING 51
SWIDTH 377 0
DWIDTH 7 0
BBX 6 13 0 0
BITMAP
0540
1050
0010
0010
0050
0580
1550
0010
0010
0010
0010
4010
1540
ENDCHAR
STARTCHAR four
ENCODING 52
SWIDTH 389 0
DWIDTH 7 0
BBX 6 13 0 0
BITMAP
0040
0040
0100
0100
0440
0440
1040
1040
1040
5590
0040
0040
0040
ENDCHAR
STARTCHAR five
ENCODING 53
SWIDTH 372 0
DWIDTH 7 0
BBX 6 14 0 0
BITMAP
0010
0940
0400
0400
0400
0400
1940
1450
1010
0010
0010
0010
4010
1540
ENDCHAR
STARTCHAR six
ENCODING 54
SWIDTH 360 0
DWIDTH 6 0
BBX 6 13 0 0
BITMAP
0140
0100
0400
1000
1000
1540
1410
5010
4010
5010
1010
1010
0540
ENDCHAR
STARTCHAR seven
ENCODING 55
SWIDTH 321 0
DWIDTH 6 0
BBX 5 13 0 0
BITMAP
5580
0040
0040
0100
0100
0100
0500
0400
0400
0400
1000
1000
1000
ENDCHAR
STARTCHAR eight
ENCODING 56
SWIDTH 377 0
DWIDTH 7 0
BBX 6 13 0 0
BITMAP
0540
1010
1010
1010
1010
0540
0640
1050
1010
4010
5010
1010
1540
ENDCHAR
STARTCHAR nine
ENCODING 57
SWIDTH 360 0
DWIDTH 6 0
BBX 6 13 0 -1
BITMAP
1540
1050
4010
4010
4010
4010
1050
1510
0040
0040
0140
0100
0400
ENDCHAR
STARTCHAR colon
ENCODING 58
SWIDTH 181 0
DWIDTH 3 0
BBX 1 9 1 0
BITMAP
40
40
00
00
00
00
00
40
40
ENDCHAR
STARTCHAR semicolon
ENCODING 59
SWIDTH 165 0
DWIDTH 3 0
BBX 2 11 0 -2
BITMAP
10
10
00
00
00
00
00
00
10
10
50
ENDCHAR
STARTCHAR less
ENCODING 60
SWIDTH 482 0
DWIDTH 9 0
BBX 7 7 1 1
BITMAP
0014
0150
1500
9000
1400
0140
0014
ENDCHAR
STARTCHAR equal
ENCODING 61
SWIDTH 577 0
DWIDTH 10 0
BBX 8 4 1 3
BITMAP
5555
0000
0000
5555
ENDCHAR
STARTCHAR greater
ENCODING 62
SWIDTH 482 0
DWIDTH 9 0
BBX 7 7 1 1
BITMAP
5000
0500
0050
0014
0140
1400
4000
ENDCHAR
STARTCHAR question
ENCODING 63
SWIDTH 300 0
DWIDTH 5 0
BBX 5 13 0 0
BITMAP
1500
4040
0040
0140
0100
0500
0400
1400
0400
0000
0000
0400
0400
ENDCHAR
STARTCHAR at
ENCODING 64
SWIDTH 748 0
DWIDTH 13 0
BBX 13 13 0 0
BITMAP
00555000
05014400
04044100
10104040
10100040
50410040
40450040
50450040
10450100
10480500
04515000
05000500
00555000
ENDCHAR
STARTCHAR A
ENCODING 65
SWIDTH 414 0
DWIDTH 7 0
BBX 7 13 0 0
BITMAP
0100
0240
0140
0440
0440
0410
0410
1560
1010
1004
1004
4004
4004
ENDCHAR
STARTCHAR B
ENCODING 66
SWIDTH 375 0
DWIDTH 7 0
BBX 5 13 1 0
BITMAP
9500
4140
4040
4040
4040
5540
5640
4040
4040
4040
4040
4140
9500
ENDCHAR
STARTCHAR C
ENCODING 67
SWIDTH 366 0
DWIDTH 7 0
BBX 6 13 0 0
BITMAP
0550
1400
1000
1000
1000
4000
4000
4000
1000
1000
1000
1400
0550
ENDCHAR
STARTCHAR D
ENCODING 68
SWIDTH 396 0
DWIDTH 7 0
BBX 6 13 1 0
BITMAP
9500
4040
4040
4040
4010
4010
4010
4010
4010
4040
4040
4040
9500
ENDCHAR
STARTCHAR E
ENCODING 69
SWIDTH 309 0
DWIDTH 6 0
BBX 4 13 1 0
BITMAP
95
40
40
40
40
95
40
40
40
40
40
40
95
ENDCHAR
STARTCHAR F
ENCODING 70
SWIDTH 299 0
DWIDTH 5 0
BBX 4 13 1 0
BITMAP
95
40
40
40
40
95
40
40
40
40
40
40
40
ENDCHAR
STARTCHAR G
ENCODING 71
SWIDTH 382 0
DWIDTH 7 0
BBX 6 13 0 0
BITMAP
0550
1400
1000
1000
1000
4000
4000
4050
5010
1010
1010
1410
0550
ENDCHAR
STARTCHAR H
ENCODING 72
SWIDTH 425 0
DWIDTH 8 0
BBX 6 13 1 0
BITMAP
4010
4010
4010
4010
4010
4010
9550
4010
4010
4010
4010
4010
4010
ENDCHAR
STARTCHAR I
ENCODING 73
SWIDTH 141 0
DWIDTH 3 0
BBX 1 13 1 0
BITMAP
40
40
40
40
40
40
40
40
40
40
40
40
40
ENDCHAR
STARTCHAR J
ENCODING 74
SWIDTH 142 0
DWIDTH 3 0
BBX 4 17 -2 -4
BITMAP
01
01
01
01
01
01
01
01
01
01
01
01
01
01
01
04
54
ENDCHAR
STARTCHAR K
ENCODING 75
SWIDTH 401 0
DWIDTH 7 0
BBX 7 13 0 0
BITMAP
1014
1010
1040
1040
1040
6600
6440
1010
1010
1010
1010
1004
1004
ENDCHAR
STARTCHAR L
ENCODING 76
SWIDTH 347 0
DWIDTH 6 0
BBX 5 13 1 0
BITMAP
4000
4000
4000
4000
4000
4000
4000
4000
4000
4000
4000
4000
9540
ENDCHAR
STARTCHAR M
ENCODING 77
SWIDTH 534 0
DWIDTH 10 0
BBX 8 13 1 0
BITMAP
5008
5424
4544
4245
4141
4141
4241
4141
4141
4141
4001
4001
4001
ENDCHAR
STARTCHAR N
ENCODING 78
SWIDTH 422 0
DWIDTH 8 0
BBX 6 13 1 0
BITMAP
4010
8010
5010
5010
5410
4410
4410
4110
4110
4150
4050
4050
4010
ENDCHAR
STARTCHAR O
ENCODING 79
SWIDTH 446 0
DWIDTH 8 0
BBX 8 13 0 0
BITMAP
0550
1404
1004
1004
1005
4001
4001
4001
1005
1004
1004
1404
0550
ENDCHAR
STARTCHAR P
ENCODING 80
SWIDTH 341 0
DWIDTH 6 0
BBX 5 13 1 0
BITMAP
9500
4140
4040
4040
4040
4100
9400
4000
4000
4000
4000
4000
4000
ENDCHAR
STARTCHAR Q
ENCODING 81
SWIDTH 446 0
DWIDTH 8 0
BBX 8 18 0 -5
BITMAP
0550
1404
1004
1004
1005
4001
4001
4001
6009
1414
1144
1554
0690
0140
0140
0140
0140
0140
ENDCHAR
STARTCHAR R
ENCODING 82
SWIDTH 380 0
DWIDTH 7 0
BBX 7 13 0 0
BITMAP
2540
1010
1010
1010
1010
6540
6540
1040
1010
1010
1010
1010
1004
ENDCHAR
STARTCHAR S
ENCODING 83
SWIDTH 356 0
DWIDTH 6 0
BBX 6 13 0 0
BITMAP
1540
1010
5000
1000
1000
0400
0100
0040
0010
0010
4010
5010
1540
ENDCHAR
STARTCHAR T
ENCODING 84
SWIDTH 377 0
DWIDTH 7 0
BBX 7 13 0 0
BITMAP
5654
0100
0100
0100
0100
0100
0100
0100
0100
0100
0100
0100
0100
ENDCHAR
STARTCHAR U
ENCODING 85
SWIDTH 412 0
DWIDTH 7 0
BBX 6 13 1 0
BITMAP
4010
4010
4010
4010
4010
4010
4010
4010
4010
4010
4010
4050
1540
ENDCHAR
STARTCHAR V
ENCODING 86
SWIDTH 384 0
DWIDTH 7 0
BBX 7 13 0 0
BITMAP
4004
4004
5010
1010
1010
1010
1040
0440
0440
0440
0540
0200
0200
ENDCHAR
STARTCHAR W
ENCODING 87
SWIDTH 534 0
DWIDTH 10 0
BBX 8 13 1 0
BITMAP
4001
4001
4001
4001
4141
4141
4141
4141
4101
4145
4454
5414
5008
ENDCHAR
STARTCHAR X
ENCODING 88
SWIDTH 318 0
DWIDTH 6 0
BBX 6 13 0 0
BITMAP
4040
1040
1040
1100
0500
0500
0500
0500
1500
1040
1040
4040
4010
ENDCHAR
STARTCHAR Y
ENCODING 89
SWIDTH 370 0
DWIDTH 7 0
BBX 7 13 0 0
BITMAP
4004
4010
1010
1040
0440
0540
0600
0100
0100
0100
0100
0100
0100
ENDCHAR
STARTCHAR Z
ENCODING 90
SWIDTH 309 0
DWIDTH 6 0
BBX 5 13 0 0
BITMAP
5580
0040
0040
0100
0100
0100
0400
0400
1000
1000
1000
4000
5540
ENDCHAR
STARTCHAR bracketleft
ENCODING 91
SWIDTH 193 0
DWIDTH 3 0
BBX 2 16 1 -1
BITMAP
50
40
40
40
40
40
40
40
40
40
40
40
40
40
40
50
ENDCHAR
STARTCHAR backslash
ENCODING 92
SWIDTH 292 0
DWIDTH 5 0
BBX 5 15 0 -1
BITMAP
4000
4000
1000
1000
1000
0400
0400
0400
0500
0100
0100
0100
0040
0040
0040
ENDCHAR
STARTCHAR bracketright
ENCODING 93
SWIDTH 193 0
DWIDTH 3 0
BBX 3 16 0 -1
BITMAP
54
04
04
04
04
04
04
04
04
04
04
04
04
04
04
54
ENDCHAR
STARTCHAR asciicircum
ENCODING 94
SWIDTH 416 0
DWIDTH 7 0
BBX 7 7 0 6
BITMAP
0240
0540
0440
0410
1010
1004
4004
ENDCHAR
STARTCHAR underscore
ENCODING 95
SWIDTH 556 0
DWIDTH 10 0
BBX 8 1 1 -1
BITMAP
5555
ENDCHAR
STARTCHAR grave
ENCODING 96
SWIDTH 201 0
DWIDTH 4 0
BBX 2 2 1 10
BITMAP
40
10
ENDCHAR
STARTCHAR a
ENCODING 97
SWIDTH 315 0
DWIDTH 6 0
BBX 5 9 0 0
BITMAP
1500
1140
0040
0040
0540
1040
4040
4140
1580
ENDCHAR
STARTCHAR b
ENCODING 98
SWIDTH 298 0
DWIDTH 5 0
BBX 4 13 1 0
BITMAP
40
40
40
40
94
41
41
41
41
41
41
41
94
ENDCHAR
STARTCHAR c
ENCODING 99
SWIDTH 275 0
DWIDTH 5 0
BBX 5 9 0 0
BITMAP
1500
1040
1000
4000
4000
4000
1000
1040
1500
ENDCHAR
STARTCHAR d
ENCODING 100
SWIDTH 298 0
DWIDTH 5 0
BBX 5 13 0 0
BITMAP
0040
0040
0040
0040
1540
1140
1040
4040
4040
4040
1040
1040
1540
ENDCHAR
STARTCHAR e
ENCODING 101
SWIDTH 285 0
DWIDTH 5 0
BBX 5 9 0 0
BITMAP
1500
1040
1040
5540
4000
5000
1000
1040
1500
ENDCHAR
STARTCHAR f
ENCODING 102
SWIDTH 178 0
DWIDTH 3 0
BBX 4 13 0 0
BITMAP
05
10
10
10
64
10
10
10
10
10
10
10
10
ENDCHAR
STARTCHAR g
ENCODING 103
SWIDTH 302 0
DWIDTH 5 0
BBX 6 14 0 -4
BITMAP
0040
1600
1040
1040
1040
1040
1140
1900
1000
1500
4040
4010
4010
5540
ENDCHAR
STARTCHAR h
ENCODING 104
SWIDTH 307 0
DWIDTH 6 0
BBX 4 13 1 0
BITMAP
40
40
40
40
95
81
41
41
41
41
41
41
41
ENDCHAR
STARTCHAR i
ENCODING 105
SWIDTH 141 0
DWIDTH 3 0
BBX 1 12 1 0
BITMAP
40
40
00
40
40
40
40
40
40
40
40
40
ENDCHAR
STARTCHAR j
ENCODING 106
SWIDTH 141 0
DWIDTH 3 0
BBX 3 16 -1 -4
BITMAP
04
04
00
04
04
04
04
04
04
04
04
04
04
04
14
50
ENDCHAR
STARTCHAR k
ENCODING 107
SWIDTH 287 0
DWIDTH 5 0
BBX 4 13 1 0
BITMAP
40
40
40
40
41
44
54
60
84
44
44
41
41
ENDCHAR
STARTCHAR l
ENCODING 108
SWIDTH 141 0
DWIDTH 3 0
BBX 1 13 1 0
BITMAP
40
40
40
40
40
40
40
40
40
40
40
40
40
ENDCHAR
STARTCHAR m
ENCODING 109
SWIDTH 407 0
DWIDTH 7 0
BBX 6 9 1 0
BITMAP
9050
5510
4810
4510
4510
4410
4010
4010
4010
ENDCHAR
STARTCHAR n
ENCODING 110
SWIDTH 307 0
DWIDTH 6 0
BBX 4 9 1 0
BITMAP
55
81
41
41
41
41
41
41
41
ENDCHAR
STARTCHAR o
ENCODING 111
SWIDTH 309 0
DWIDTH 6 0
BBX 5 9 0 0
BITMAP
1500
1040
1040
4040
4040
4040
1040
1040
1500
ENDCHAR
STARTCHAR p
ENCODING 112
SWIDTH 299 0
DWIDTH 5 0
BBX 5 13 0 -4
BITMAP
6500
1040
1040
1040
1040
1040
1040
1040
2500
1000
1000
1000
1000
ENDCHAR
STARTCHAR q
ENCODING 113
SWIDTH 286 0
DWIDTH 5 0
BBX 5 13 0 -4
BITMAP
1540
1040
1040
5040
4040
5040
1040
1140
1540
0040
0040
0040
0080
ENDCHAR
STARTCHAR r
ENCODING 114
SWIDTH 277 0
DWIDTH 5 0
BBX 4 9 1 0
BITMAP
95
81
40
40
40
40
40
40
40
ENDCHAR
STARTCHAR s
ENCODING 115
SWIDTH 257 0
DWIDTH 5 0
BBX 4 9 0 0
BITMAP
15
50
50
10
04
01
01
41
15
ENDCHAR
STARTCHAR t
ENCODING 116
SWIDTH 207 0
DWIDTH 4 0
BBX 3 11 0 0
BITMAP
10
10
64
10
10
10
10
10
10
10
14
ENDCHAR
STARTCHAR u
ENCODING 117
SWIDTH 307 0
DWIDTH 6 0
BBX 4 9 1 0
BITMAP
41
41
41
41
41
41
41
41
55
ENDCHAR
STARTCHAR v
ENCODING 118
SWIDTH 285 0
DWIDTH 5 0
BBX 5 9 0 0
BITMAP
4040
4040
1040
1100
1100
1100
1500
0800
0800
ENDCHAR
STARTCHAR w
ENCODING 119
SWIDTH 396 0
DWIDTH 7 0
BBX 7 9 0 0
BITMAP
4004
4004
4104
5144
1204
1210
1250
1450
2020
ENDCHAR
STARTCHAR x
ENCODING 120
SWIDTH 244 0
DWIDTH 4 0
BBX 4 9 0 0
BITMAP
41
11
14
14
04
14
15
51
41
ENDCHAR
STARTCHAR y
ENCODING 121
SWIDTH 285 0
DWIDTH 5 0
BBX 5 13 0 -4
BITMAP
4040
4040
1040
1100
1100
1100
1100
0800
0800
0400
0400
0400
5000
ENDCHAR
STARTCHAR z
ENCODING 122
SWIDTH 233 0
DWIDTH 4 0
BBX 4 9 0 0
BITMAP
16
01
04
04
04
10
10
50
55
ENDCHAR
STARTCHAR braceleft
ENCODING 123
SWIDTH 306 0
DWIDTH 6 0
BBX 5 16 0 -1
BITMAP
0140
0100
0100
0100
0100
0100
0100
5500
5500
0100
0100
0100
0100
0100
0100
0140
ENDCHAR
STARTCHAR bar
ENCODING 124
SWIDTH 141 0
DWIDTH 3 0
BBX 1 15 1 -1
BITMAP
40
40
40
40
40
40
40
40
40
40
40
40
40
40
40
ENDCHAR
STARTCHAR braceright
ENCODING 125
SWIDTH 306 0
DWIDTH 6 0
BBX 5 16 0 -1
BITMAP
5000
0400
0400
0400
0400
0400
0400
0540
0540
0400
0400
0400
0400
0400
0400
5000
ENDCHAR
STARTCHAR asciitilde
ENCODING 126
SWIDTH 433 0
DWIDTH 8 0
BBX 6 2 1 4
BITMAP
5410
4150
ENDCHAR
STARTCHAR uni00A0
ENCODING 160
SWIDTH 240 0
DWIDTH 4 0
BBX 1 1 0 0
BITMAP
00
ENDCHAR
STARTCHAR exclamdown
ENCODING 161
SWIDTH 141 0
DWIDTH 3 0
BBX 1 13 1 -3
BITMAP
40
40
00
40
40
40
40
40
40
40
40
40
40
ENDCHAR
STARTCHAR cent
ENCODING 162
SWIDTH 275 0
DWIDTH 5 0
BBX 5 12 0 -2
BITMAP
0400
0400
1900
1400
1400
4400
5400
1400
1440
1900
0400
0400
ENDCHAR
STARTCHAR sterling
ENCODING 163
SWIDTH 331 0
DWIDTH 6 0
BBX 6 13 0 0
BITMAP
1540
5040
4000
4000
1000
1000
1940
0400
0400
0400
1400
1000
5550
ENDCHAR
STARTCHAR currency
ENCODING 164
SWIDTH 506 0
DWIDTH 9 0
BBX 7 8 1 2
BITMAP
4000
5554
1010
4004
4004
5004
2020
4544
ENDCHAR
STARTCHAR yen
ENCODING 165
SWIDTH 370 0
DWIDTH 7 0
BBX 7 13 0 0
BITMAP
4004
4010
1010
1040
0440
0440
0600
0100
1650
0100
1650
0100
0100
ENDCHAR
STARTCHAR brokenbar
ENCODING 166
SWIDTH 141 0
DWIDTH 3 0
BBX 1 15 1 -1
BITMAP
40
40
40
40
40
40
00
00
00
40
40
40
40
40
40
ENDCHAR
STARTCHAR section
ENCODING 167
SWIDTH 303 0
DWIDTH 5 0
BBX 5 17 0 -2
BITMAP
1500
5040
4000
4000
1000
0400
1E00
2580
5040
0040
0000
0500
0040
0040
0040
4040
1500
ENDCHAR
STARTCHAR dieresis
ENCODING 168
SWIDTH 241 0
DWIDTH 4 0
BBX 3 2 1 10
BITMAP
44
44
ENDCHAR
STARTCHAR copyright
ENCODING 169
SWIDTH 772 0
DWIDTH 14 0
BBX 13 14 0 0
BITMAP
00154000
01401400
04000100
10050140
10100040
10100040
40100040
40100040
10100040
10100040
10100140
04050100
01401400
00154000
ENDCHAR
STARTCHAR ordfeminine
ENCODING 170
SWIDTH 231 0
DWIDTH 4 0
BBX 4 6 0 7
BITMAP
18
04
08
14
44
59
ENDCHAR
STARTCHAR guillemotleft
ENCODING 171
SWIDTH 403 0
DWIDTH 7 0
BBX 6 7 1 2
BITMAP
0440
1140
4500
4400
5100
1040
0450
ENDCHAR
STARTCHAR logicalnot
ENCODING 172
SWIDTH 557 0
DWIDTH 10 0
BBX 9 4 1 2
BITMAP
555540
000040
000040
000040
ENDCHAR
STARTCHAR uni00AD
ENCODING 173
SWIDTH 286 0
DWIDTH 5 0
BBX 3 1 1 5
BITMAP
54
ENDCHAR
STARTCHAR registered
ENCODING 174
SWIDTH 772 0
DWIDTH 14 0
BBX 13 14 0 0
BITMAP
00154000
01401400
04000100
10150140
10104040
10104040
40114040
40160040
10104040
10104040
10104140
04000100
01401400
00154000
ENDCHAR
STARTCHAR macron
ENCODING 175
SWIDTH 266 0
DWIDTH 5 0
BBX 3 1 1 11
BITMAP
54
ENDCHAR
STARTCHAR degree
ENCODING 176
SWIDTH 350 0
DWIDTH 6 0
BBX 5 5 1 8
BITMAP
1500
4100
4040
4100
1500
ENDCHAR
STARTCHAR plusminus
ENCODING 177
SWIDTH 577 0
DWIDTH 10 0
BBX 8 9 1 0
BITMAP
0040
0040
0040
5595
0040
0040
0040
0000
5555
ENDCHAR
STARTCHAR uni00B2
ENCODING 178
SWIDTH 207 0
DWIDTH 4 0
BBX 3 6 0 7
BITMAP
14
04
04
14
10
54
ENDCHAR
STARTCHAR uni00B3
ENCODING 179
SWIDTH 214 0
DWIDTH 4 0
BBX 3 6 0 7
BITMAP
14
04
14
04
04
54
ENDCHAR
STARTCHAR acute
ENCODING 180
SWIDTH 201 0
DWIDTH 4 0
BBX 2 2 1 10
BITMAP
10
40
ENDCHAR
STARTCHAR uni00B5
ENCODING 181
SWIDTH 335 0
DWIDTH 6 0
BBX 5 13 1 -4
BITMAP
4100
4100
4100
4100
4100
4100
4100
4100
9540
4000
4000
4000
4000
ENDCHAR
STARTCHAR paragraph
ENCODING 182
SWIDTH 471 0
DWIDTH 8 0
BBX 7 13 1 0
BITMAP
2F84
7F84
BF84
FF84
BF84
7F84
1684
0044
0044
0044
0044
0044
0044
ENDCHAR
STARTCHAR periodcentered
ENCODING 183
SWIDTH 181 0
DWIDTH 3 0
BBX 1 2 1 5
BITMAP
40
40
ENDCHAR
STARTCHAR cedilla
ENCODING 184
SWIDTH 232 0
DWIDTH 4 0
BBX 2 3 1 -3
BITMAP
50
10
50
ENDCHAR
STARTCHAR uni00B9
ENCODING 185
SWIDTH 176 0
DWIDTH 3 0
BBX 3 6 0 7
BITMAP
60
10
10
10
10
64
ENDCHAR
STARTCHAR ordmasculine
ENCODING 186
SWIDTH 201 0
DWIDTH 4 0
BBX 3 6 0 7
BITMAP
14
44
44
44
44
14
ENDCHAR
STARTCHAR guillemotright
ENCODING 187
SWIDTH 403 0
DWIDTH 7 0
BBX 6 7 1 1
BITMAP
4400
5100
1040
0810
1440
1100
4500
ENDCHAR
STARTCHAR onequarter
ENCODING 188
SWIDTH 527 0
DWIDTH 9 0
BBX 8 13 1 0
BITMAP
5004
1004
1010
1010
1040
6040
0140
0104
0110
0414
0454
1059
1004
ENDCHAR
STARTCHAR onehalf
ENCODING 189
SWIDTH 540 0
DWIDTH 10 0
BBX 8 13 1 0
BITMAP
5004
1004
1010
1010
1040
6040
0140
0115
0101
0401
0404
1014
1025
ENDCHAR
STARTCHAR threequarters
ENCODING 190
SWIDTH 517 0
DWIDTH 9 0
BBX 9 13 0 0
BITMAP
140100
040100
140400
040400
041000
541000
005000
004100
004400
010500
010500
041640
040100
ENDCHAR
STARTCHAR questiondown
ENCODING 191
SWIDTH 300 0
DWIDTH 5 0
BBX 4 13 1 -3
BITMAP
04
04
00
00
04
04
14
10
40
40
40
41
55
ENDCHAR
STARTCHAR Agrave
ENCODING 192
SWIDTH 414 0
DWIDTH 7 0
BBX 7 16 0 0
BITMAP
0500
0100
0000
0100
0240
0140
0440
0440
0410
0410
1560
1010
1004
1004
4004
4004
ENDCHAR
STARTCHAR Aacute
ENCODING 193
SWIDTH 414 0
DWIDTH 7 0
BBX 7 16 0 0
BITMAP
0040
0040
0000
0100
0240
0140
0440
0440
0410
0410
1560
1010
1004
1004
4004
4004
ENDCHAR
STARTCHAR Acircumflex
ENCODING 194
SWIDTH 414 0
DWIDTH 7 0
BBX 7 15 0 0
BITMAP
0140
0440
0100
0240
0140
0440
0440
0410
0410
1560
1010
1004
1004
4004
4004
ENDCHAR
STARTCHAR Atilde
ENCODING 195
SWIDTH 414 0
DWIDTH 7 0
BBX 7 16 0 0
BITMAP
0500
0440
0000
0100
0240
0140
0440
0440
0410
0410
1560
1010
1004
1004
4004
4004
ENDCHAR
STARTCHAR Adieresis
ENCODING 196
SWIDTH 414 0
DWIDTH 7 0
BBX 7 16 0 0
BITMAP
0440
0440
0000
0100
0240
0140
0440
0440
0410
0410
1560
1010
1004
1004
4004
4004
ENDCHAR
STARTCHAR Aring
ENCODING 197
SWIDTH 414 0
DWIDTH 7 0
BBX 7 16 0 0
BITMAP
0140
0440
0140
0100
0240
0140
0440
0440
0410
0410
1560
1010
1004
1004
4004
4004
ENDCHAR
STARTCHAR AE
ENCODING 198
SWIDTH 545 0
DWIDTH 10 0
BBX 9 13 0 0
BITMAP
002540
006000
005000
005000
011000
011540
041000
056000
041000
101000
101000
401000
401540
ENDCHAR
STARTCHAR Ccedilla
ENCODING 199
SWIDTH 366 0
DWIDTH 7 0
BBX 6 16 0 -3
BITMAP
0550
1400
1000
1000
1000
4000
4000
4000
1000
1000
1000
1400
0550
0140
0040
0140
ENDCHAR
STARTCHAR Egrave
ENCODING 200
SWIDTH 309 0
DWIDTH 6 0
BBX 4 16 1 0
BITMAP
10
10
00
95
40
40
40
40
95
40
40
40
40
40
40
95
ENDCHAR
STARTCHAR Eacute
ENCODING 201
SWIDTH 309 0
DWIDTH 6 0
BBX 4 16 1 0
BITMAP
04
04
00
95
40
40
40
40
95
40
40
40
40
40
40
95
ENDCHAR
STARTCHAR Ecircumflex
ENCODING 202
SWIDTH 309 0
DWIDTH 6 0
BBX 4 15 1 0
BITMAP
14
14
95
40
40
40
40
95
40
40
40
40
40
40
95
ENDCHAR
STARTCHAR Edieresis
ENCODING 203
SWIDTH 309 0
DWIDTH 6 0
BBX 4 16 1 0
BITMAP
14
14
00
95
40
40
40
40
95
40
40
40
40
40
40
95
ENDCHAR
STARTCHAR Igrave
ENCODING 204
SWIDTH 141 0
DWIDTH 3 0
BBX 2 16 0 0
BITMAP
40
10
00
10
10
10
10
10
10
10
10
10
10
10
10
10
ENDCHAR
STARTCHAR Iacute
ENCODING 205
SWIDTH 141 0
DWIDTH 3 0
BBX 2 16 1 0
BITMAP
10
40
00
40
40
40
40
40
40
40
40
40
40
40
40
40
ENDCHAR
STARTCHAR Icircumflex
ENCODING 206
SWIDTH 141 0
DWIDTH 3 0
BBX 3 15 0 0
BITMAP
50
44
10
10
10
10
10
10
10
10
10
10
10
10
10
ENDCHAR
STARTCHAR Idieresis
ENCODING 207
SWIDTH 141 0
DWIDTH 3 0
BBX 3 16 0 0
BITMAP
44
44
00
10
10
10
10
10
10
10
10
10
10
10
10
10
ENDCHAR
STARTCHAR Eth
ENCODING 208
SWIDTH 396 0
DWIDTH 7 0
BBX 7 13 0 0
BITMAP
2540
1010
1010
1010
1004
1004
6504
1004
1004
1010
1010
1010
2540
ENDCHAR
STARTCHAR Ntilde
ENCODING 209
SWIDTH 422 0
DWIDTH 8 0
BBX 6 16 1 0
BITMAP
1440
1100
0000
4010
8010
5010
5010
5410
4410
4410
4110
4110
4150
4050
4050
4010
ENDCHAR
STARTCHAR Ograve
ENCODING 210
SWIDTH 446 0
DWIDTH 8 0
BBX 8 16 0 0
BITMAP
0100
0100
0000
0550
1404
1004
1004
1005
4001
4001
4001
1005
1004
1004
1404
0550
ENDCHAR
STARTCHAR Oacute
ENCODING 211
SWIDTH 446 0
DWIDTH 8 0
BBX 8 16 0 0
BITMAP
0040
0040
0000
0550
1404
1004
1004
1005
4001
4001
4001
1005
1004
1004
1404
0550
ENDCHAR
STARTCHAR Ocircumflex
ENCODING 212
SWIDTH 446 0
DWIDTH 8 0
BBX 8 15 0 0
BITMAP
0140
0140
0550
1404
1004
1004
1005
4001
4001
4001
1005
1004
1004
1404
0550
ENDCHAR
STARTCHAR Otilde
ENCODING 213
SWIDTH 446 0
DWIDTH 8 0
BBX 8 16 0 0
BITMAP
0510
0440
0000
0550
1404
1004
1004
1005
4001
4001
4001
1005
1004
1004
1404
0550
ENDCHAR
STARTCHAR Odieresis
ENCODING 214
SWIDTH 446 0
DWIDTH 8 0
BBX 8 16 0 0
BITMAP
0140
0140
0000
0550
1404
1004
1004
1005
4001
4001
4001
1005
1004
1004
1404
0550
ENDCHAR
STARTCHAR multiply
ENCODING 215
SWIDTH 445 0
DWIDTH 8 0
BBX 6 7 1 1
BITMAP
4010
5050
1540
0600
1540
5050
4010
ENDCHAR
STARTCHAR Oslash
ENCODING 216
SWIDTH 446 0
DWIDTH 8 0
BBX 8 13 0 0
BITMAP
0554
1414
1014
1014
1045
4041
4141
4101
1105
1404
1404
1404
1550
ENDCHAR
STARTCHAR Ugrave
ENCODING 217
SWIDTH 412 0
DWIDTH 7 0
BBX 6 16 1 0
BITMAP
1400
0400
0000
4010
4010
4010
4010
4010
4010
4010
4010
4010
4010
4010
4050
1540
ENDCHAR
STARTCHAR Uacute
ENCODING 218
SWIDTH 412 0
DWIDTH 7 0
BBX 6 16 1 0
BITMAP
0100
0000
0000
4010
4010
4010
4010
4010
4010
4010
4010
4010
4010
4010
4050
1540
ENDCHAR
STARTCHAR Ucircumflex
ENCODING 219
SWIDTH 412 0
DWIDTH 7 0
BBX 6 15 1 0
BITMAP
0500
1100
4010
4010
4010
4010
4010
4010
4010
4010
4010
4010
4010
4050
1540
ENDCHAR
STARTCHAR Udieresis
ENCODING 220
SWIDTH 412 0
DWIDTH 7 0
BBX 6 16 1 0
BITMAP
1100
1100
0000
4010
4010
4010
4010
4010
4010
4010
4010
4010
4010
4010
4050
1540
ENDCHAR
STARTCHAR Yacute
ENCODING 221
SWIDTH 370 0
DWIDTH 7 0
BBX 7 16 0 0
BITMAP
0040
0100
0000
4004
4010
1010
1040
0440
0540
0600
0100
0100
0100
0100
0100
0100
ENDCHAR
STARTCHAR Thorn
ENCODING 222
SWIDTH 341 0
DWIDTH 6 0
BBX 5 13 1 0
BITMAP
4000
4000
9500
4100
4040
4040
4040
4040
4100
9400
4000
4000
4000
ENDCHAR
STARTCHAR germandbls
ENCODING 223
SWIDTH 327 0
DWIDTH 6 0
BBX 4 13 1 0
BITMAP
54
41
41
41
41
55
55
41
41
41
41
41
54
ENDCHAR
STARTCHAR agrave
ENCODING 224
SWIDTH 315 0
DWIDTH 6 0
BBX 5 12 0 0
BITMAP
0400
0400
0000
1500
1140
0040
0040
0540
1040
4040
4140
1580
ENDCHAR
STARTCHAR aacute
ENCODING 225
SWIDTH 315 0
DWIDTH 6 0
BBX 5 12 0 0
BITMAP
0100
0400
0000
1500
1140
0040
0040
0540
1040
4040
4140
1580
ENDCHAR
STARTCHAR acircumflex
ENCODING 226
SWIDTH 315 0
DWIDTH 6 0
BBX 5 12 0 0
BITMAP
0500
1100
0000
1500
1140
0040
0040
0540
1040
4040
4140
1580
ENDCHAR
STARTCHAR atilde
ENCODING 227
SWIDTH 315 0
DWIDTH 6 0
BBX 5 12 0 0
BITMAP
1440
1100
0000
1500
1140
0040
0040
0540
1040
4040
4140
1580
ENDCHAR
STARTCHAR adieresis
ENCODING 228
SWIDTH 315 0
DWIDTH 6 0
BBX 5 12 0 0
BITMAP
1100
1100
0000
1500
1140
0040
0040
0540
1040
4040
4140
1580
ENDCHAR
STARTCHAR aring
ENCODING 229
SWIDTH 315 0
DWIDTH 6 0
BBX 5 13 0 0
BITMAP
0500
1100
0500
0000
1500
1140
0040
0040
0540
1040
4040
4140
1580
ENDCHAR
STARTCHAR ae
ENCODING 230
SWIDTH 450 0
DWIDTH 8 0
BBX 8 9 0 0
BITMAP
1514
1145
0041
0041
0595
1040
4040
4081
1554
ENDCHAR
STARTCHAR ccedilla
ENCODING 231
SWIDTH 275 0
DWIDTH 5 0
BBX 5 12 0 -3
BITMAP
1500
1040
1000
4000
4000
4000
1000
1040
1900
0900
0100
0500
ENDCHAR
STARTCHAR egrave
ENCODING 232
SWIDTH 285 0
DWIDTH 5 0
BBX 5 12 0 0
BITMAP
0400
0400
0000
1500
1040
1040
5540
4000
5000
1000
1040
1500
ENDCHAR
STARTCHAR eacute
ENCODING 233
SWIDTH 285 0
DWIDTH 5 0
BBX 5 12 0 0
BITMAP
0100
0400
0000
1500
1040
1040
5540
4000
5000
1000
1040
1500
ENDCHAR
STARTCHAR ecircumflex
ENCODING 234
SWIDTH 285 0
DWIDTH 5 0
BBX 5 12 0 0
BITMAP
0900
1100
0000
1500
1040
1040
5540
4000
5000
1000
1040
1500
ENDCHAR
STARTCHAR edieresis
ENCODING 235
SWIDTH 285 0
DWIDTH 5 0
BBX 5 12 0 0
BITMAP
1100
1100
0000
1500
1040
1040
5540
4000
5000
1000
1040
1500
ENDCHAR
STARTCHAR igrave
ENCODING 236
SWIDTH 141 0
DWIDTH 3 0
BBX 2 12 0 0
BITMAP
40
10
00
10
10
10
10
10
10
10
10
10
ENDCHAR
STARTCHAR iacute
ENCODING 237
SWIDTH 141 0
DWIDTH 3 0
BBX 2 12 1 0
BITMAP
50
40
00
40
40
40
40
40
40
40
40
40
ENDCHAR
STARTCHAR icircumflex
ENCODING 238
SWIDTH 141 0
DWIDTH 3 0
BBX 3 12 0 0
BITMAP
60
44
00
10
10
10
10
10
10
10
10
10
ENDCHAR
STARTCHAR idieresis
ENCODING 239
SWIDTH 141 0
DWIDTH 3 0
BBX 3 12 0 0
BITMAP
44
44
00
10
10
10
10
10
10
10
10
10
ENDCHAR
STARTCHAR eth
ENCODING 240
SWIDTH 319 0
DWIDTH 6 0
BBX 5 13 0 0
BITMAP
1400
0540
1600
0100
1540
1040
1040
4040
4040
4040
1040
1040
1500
ENDCHAR
STARTCHAR ntilde
ENCODING 241
SWIDTH 307 0
DWIDTH 6 0
BBX 4 12 1 0
BITMAP
51
44
00
55
81
41
41
41
41
41
41
41
ENDCHAR
STARTCHAR ograve
ENCODING 242
SWIDTH 309 0
DWIDTH 6 0
BBX 5 12 0 0
BITMAP
0400
0400
0000
1500
1040
1040
4040
4040
4040
1040
1040
1500
ENDCHAR
STARTCHAR oacute
ENCODING 243
SWIDTH 309 0
DWIDTH 6 0
BBX 5 12 0 0
BITMAP
0100
0400
0000
1500
1040
1040
4040
4040
4040
1040
1040
1500
ENDCHAR
STARTCHAR ocircumflex
ENCODING 244
SWIDTH 309 0
DWIDTH 6 0
BBX 5 12 0 0
BITMAP
0500
1100
0000
1500
1040
1040
4040
4040
4040
1040
1040
1500
ENDCHAR
STARTCHAR otilde
ENCODING 245
SWIDTH 309 0
DWIDTH 6 0
BBX 5 12 0 0
BITMAP
1440
1100
0000
1500
1040
1040
4040
4040
4040
1040
1040
1500
ENDCHAR
STARTCHAR odieresis
ENCODING 246
SWIDTH 309 0
DWIDTH 6 0
BBX 5 12 0 0
BITMAP
1100
1100
0000
1500
1040
1040
4040
4040
4040
1040
1040
1500
ENDCHAR
STARTCHAR divide
ENCODING 247
SWIDTH 577 0
DWIDTH 10 0
BBX 8 9 1 0
BITMAP
0040
0040
0000
0000
5555
0000
0000
0040
0040
ENDCHAR
STARTCHAR oslash
ENCODING 248
SWIDTH 309 0
DWIDTH 6 0
BBX 5 9 0 0
BITMAP
1540
1140
1140
4140
4440
5440
2440
2040
2500
ENDCHAR
STARTCHAR ugrave
ENCODING 249
SWIDTH 307 0
DWIDTH 6 0
BBX 4 12 1 0
BITMAP
10
10
00
41
41
41
41
41
41
41
41
55
ENDCHAR
STARTCHAR uacute
ENCODING 250
SWIDTH 307 0
DWIDTH 6 0
BBX 4 12 1 0
BITMAP
04
10
00
41
41
41
41
41
41
41
41
55
ENDCHAR
STARTCHAR ucircumflex
ENCODING 251
SWIDTH 307 0
DWIDTH 6 0
BBX 4 12 1 0
BITMAP
14
44
00
41
41
41
41
41
41
41
41
55
ENDCHAR
STARTCHAR udieresis
ENCODING 252
SWIDTH 307 0
DWIDTH 6 0
BBX 4 12 1 0
BITMAP
44
44
00
41
41
41
41
41
41
41
41
55
ENDCHAR
STARTCHAR yacute
ENCODING 253
SWIDTH 285 0
DWIDTH 5 0
BBX 5 16 0 -4
BITMAP
0100
0400
0000
4040
4040
1040
1100
1100
1100
1100
0800
0800
0400
0400
0400
5000
ENDCHAR
STARTCHAR thorn
ENCODING 254
SWIDTH 299 0
DWIDTH 5 0
BBX 5 17 0 -4
BITMAP
1000
1000
1000
1000
6500
1040
1040
1040
1040
1040
1040
1040
2500
1000
1000
1000
1000
ENDCHAR
STARTCHAR ydieresis
ENCODING 255
SWIDTH 285 0
DWIDTH 5 0
BBX 5 16 0 -4
BITMAP
1100
1100
0000
4040
4040
1040
1100
1100
1100
1100
0800
0800
0400
0400
0400
5000
ENDCHAR
STARTCHAR dotlessi
ENCODING 305
SWIDTH 141 0
DWIDTH 3 0
BBX 1 9 1 0
BITMAP
40
40
40
40
40
40
40
40
40
ENDCHAR
STARTCHAR OE
ENCODING 338
SWIDTH 505 0
DWIDTH 9 0
BBX 8 13 0 0
BITMAP
0595
1440
1040
1040
5040
4055
4040
4040
1040
1040
1040
1440
0595
ENDCHAR
STARTCHAR oe
ENCODING 339
SWIDTH 492 0
DWIDTH 9 0
BBX 9 9 0 0
BITMAP
151500
105100
108040
409540
404000
408000
108000
105100
151500
ENDCHAR
STARTCHAR Wcircumflex
ENCODING 372
SWIDTH 534 0
DWIDTH 10 0
BBX 8 15 1 0
BITMAP
0140
0440
4001
4001
4001
4001
4141
4141
4141
4141
4101
4145
4454
5414
5008
ENDCHAR
STARTCHAR wcircumflex
ENCODING 373
SWIDTH 396 0
DWIDTH 7 0
BBX 7 12 0 0
BITMAP
0200
0440
0000
4004
4004
4104
5144
1204
1210
1250
1450
2020
ENDCHAR
STARTCHAR Ycircumflex
ENCODING 374
SWIDTH 370 0
DWIDTH 7 0
BBX 7 15 0 0
BITMAP
0200
0440
4004
4010
1010
1040
0440
0540
0600
0100
0100
0100
0100
0100
0100
ENDCHAR
STARTCHAR ycircumflex
ENCODING 375
SWIDTH 285 0
DWIDTH 5 0
BBX 5 16 0 -4
BITMAP
0800
1100
0000
4040
4040
1040
1100
1100
1100
1100
0800
0800
0400
0400
0400
5000
ENDCHAR
STARTCHAR Ydieresis
ENCODING 376
SWIDTH 370 0
DWIDTH 7 0
BBX 7 16 0 0
BITMAP
0440
0440
0000
4004
4010
1010
1040
0440
0540
0600
0100
0100
0100
0100
0100
0100
ENDCHAR
STARTCHAR uni0237
ENCODING 567
SWIDTH 141 0
DWIDTH 3 0
BBX 3 13 -1 -4
BITMAP
04
04
04
04
04
04
04
04
04
04
04
14
50
ENDCHAR
STARTCHAR circumflex
ENCODING 710
SWIDTH 280 0
DWIDTH 5 0
BBX 3 2 1 10
BITMAP
20
44
ENDCHAR
STARTCHAR ring
ENCODING 730
SWIDTH 238 0
DWIDTH 4 0
BBX 2 3 1 10
BITMAP
50
50
50
ENDCHAR
STARTCHAR tilde
ENCODING 732
SWIDTH 301 0
DWIDTH 5 0
BBX 4 2 1 10
BITMAP
51
44
ENDCHAR
STARTCHAR gravecomb
ENCODING 768
SWIDTH 0 0
DWIDTH 0 0
BBX 2 2 1 10
BITMAP
40
10
ENDCHAR
STARTCHAR acutecomb
ENCODING 769
SWIDTH 0 0
DWIDTH 0 0
BBX 2 2 1 10
BITMAP
10
40
ENDCHAR
STARTCHAR uni0302
ENCODING 770
SWIDTH 0 0
DWIDTH 0 0
BBX 3 2 1 10
BITMAP
20
44
ENDCHAR
STARTCHAR tildecomb
ENCODING 771
SWIDTH 0 0
DWIDTH 0 0
BBX 4 2 1 10
BITMAP
51
44
ENDCHAR
STARTCHAR uni0307
ENCODING 775
SWIDTH 0 0
DWIDTH 0 0
BBX 1 2 1 10
BITMAP
40
40
ENDCHAR
STARTCHAR uni0308
ENCODING 776
SWIDTH 0 0
DWIDTH 0 0
BBX 3 2 1 10
BITMAP
44
44
ENDCHAR
STARTCHAR uni030A
ENCODING 778
SWIDTH 0 0
DWIDTH 0 0
BBX 2 3 1 10
BITMAP
50
50
50
ENDCHAR
STARTCHAR uni0327
ENCODING 807
SWIDTH 0 0
DWIDTH 0 0
BBX 2 3 1 -3
BITMAP
50
10
50
ENDCHAR
STARTCHAR Wgrave
ENCODING 7808
SWIDTH 534 0
DWIDTH 10 0
BBX 8 16 1 0
BITMAP
0100
0100
0000
4001
4001
4001
4001
4141
4141
4141
4141
4101
4145
4454
5414
5008
ENDCHAR
STARTCHAR wgrave
ENCODING 7809
SWIDTH 396 0
DWIDTH 7 0
BBX 7 12 0 0
BITMAP
0400
0100
0000
4004
4004
4104
5144
1204
1210
1250
1450
2020
ENDCHAR
STARTCHAR Wacute
ENCODING 7810
SWIDTH 534 0
DWIDTH 10 0
BBX 8 16 1 0
BITMAP
0040
0040
0000
4001
4001
4001
4001
4141
4141
4141
4141
4101
4145
4454
5414
5008
ENDCHAR
STARTCHAR wacute
ENCODING 7811
SWIDTH 396 0
DWIDTH 7 0
BBX 7 12 0 0
BITMAP
0040
0100
0000
4004
4004
4104
5144
1204
1210
1250
1450
2020
ENDCHAR
STARTCHAR Wdieresis
ENCODING 7812
SWIDTH 534 0
DWIDTH 10 0
BBX 8 16 1 0
BITMAP
0040
0440
0000
4001
4001
4001
4001
4141
4141
4141
4141
4101
4145
4454
5414
5008
ENDCHAR
STARTCHAR wdieresis
ENCODING 7813
SWIDTH 396 0
DWIDTH 7 0
BBX 7 12 0 0
BITMAP
0440
0440
0000
4004
4004
4104
5144
1204
1210
1250
1450
2020
ENDCHAR
STARTCHAR uni1E9E
ENCODING 7838
SWIDTH 375 0
DWIDTH 7 0
BBX 5 13 1 0
BITMAP
1500
4100
4040
4040
4040
5600
5540
4040
4040
4040
4040
4040
5500
ENDCHAR
STARTCHAR Ygrave
ENCODING 7922
SWIDTH 370 0
DWIDTH 7 0
BBX 7 16 0 0
BITMAP
0400
0100
0000
4004
4010
1010
1040
0440
0540
0600
0100
0100
0100
0100
0100
0100
ENDCHAR
STARTCHAR ygrave
ENCODING 7923
SWIDTH 285 0
DWIDTH 5 0
BBX 5 16 0 -4
BITMAP
1000
0400
0000
4040
4040
1040
1100
1100
1100
1100
0800
0800
0400
0400
0400
5000
ENDCHAR
STARTCHAR endash
ENCODING 8211
SWIDTH 425 0
DWIDTH 8 0
BBX 6 1 1 4
BITMAP
5550
ENDCHAR
STARTCHAR emdash
ENCODING 8212
SWIDTH 770 0
DWIDTH 14 0
BBX 12 1 1 4
BITMAP
555555
ENDCHAR
STARTCHAR quoteleft
ENCODING 8216
SWIDTH 145 0
DWIDTH 3 0
BBX 1 3 1 10
BITMAP
40
40
40
ENDCHAR
STARTCHAR quoteright
ENCODING 8217
SWIDTH 145 0
DWIDTH 3 0
BBX 2 3 0 8
BITMAP
10
10
50
ENDCHAR
STARTCHAR quotesinglbase
ENCODING 8218
SWIDTH 145 0
DWIDTH 3 0
BBX 2 3 0 -2
BITMAP
10
10
50
ENDCHAR
STARTCHAR quotedblleft
ENCODING 8220
SWIDTH 219 0
DWIDTH 4 0
BBX 2 3 1 10
BITMAP
50
50
50
ENDCHAR
STARTCHAR quotedblright
ENCODING 8221
SWIDTH 219 0
DWIDTH 4 0
BBX 3 3 0 8
BITMAP
14
14
54
ENDCHAR
STARTCHAR quotedblbase
ENCODING 8222
SWIDTH 219 0
DWIDTH 4 0
BBX 3 3 0 -2
BITMAP
14
14
54
ENDCHAR
STARTCHAR bullet
ENCODING 8226
SWIDTH 355 0
DWIDTH 6 0
BBX 5 5 1 4
BITMAP
3D00
BF00
FF40
7E00
1400
ENDCHAR
STARTCHAR ellipsis
ENCODING 8230
SWIDTH 651 0
DWIDTH 12 0
BBX 10 2 1 0
BITMAP
404010
404010
ENDCHAR
STARTCHAR guilsinglleft
ENCODING 8249
SWIDTH 263 0
DWIDTH 5 0
BBX 3 7 1 2
BITMAP
04
10
40
40
50
10
04
ENDCHAR
STARTCHAR guilsinglright
ENCODING 8250
SWIDTH 263 0
DWIDTH 5 0
BBX 3 7 1 1
BITMAP
40
50
10
08
14
10
40
ENDCHAR
STARTCHAR fraction
ENCODING 8260
SWIDTH 152 0
DWIDTH 3 0
BBX 7 13 -2 0
BITMAP
0004
0010
0010
0040
0040
0100
0100
0400
0400
1000
1000
5000
4000
ENDCHAR
STARTCHAR uni2074
ENCODING 8308
SWIDTH 247 0
DWIDTH 4 0
BBX 4 6 0 7
BITMAP
04
10
14
14
59
04
ENDCHAR
STARTCHAR Euro
ENCODING 8364
SWIDTH 391 0
DWIDTH 7 0
BBX 6 13 0 0
BITMAP
0150
0400
1000
1000
1000
6500
1000
6500
1000
1000
1000
0400
0150
ENDCHAR
STARTCHAR trademark
ENCODING 8482
SWIDTH 506 0
DWIDTH 9 0
BBX 9 6 0 6
BITMAP
BD9240
105940
105940
104940
105940
104040
ENDCHAR
STARTCHAR minus
ENCODING 8722
SWIDTH 557 0
DWIDTH 10 0
BBX 10 1 0 5
BITMAP
7FFFD0
ENDCHAR
STARTCHAR uni2215
ENCODING 8725
SWIDTH 259 0
DWIDTH 5 0
BBX 5 13 0 0
BITMAP
0040
0100
0100
0100
0500
0400
0400
1400
1000
1000
1000
4000
4000
ENDCHAR
STARTCHAR .notdef
ENCODING -1
SWIDTH 500 0
DWIDTH 9 0
BBX 7 16 1 -3
BITMAP
FFFC
8008
8008
8008
8008
8008
8008
8008
8008
8008
8008
8008
8008
8008
8008
FFFC
ENDCHAR
STARTCHAR NULL
ENCODING -1
SWIDTH 600 0
DWIDTH 11 0
BBX 1 1 0 0
BITMAP
00
ENDCHAR
STARTCHAR acutecomb.case
ENCODING -1
SWIDTH 0 0
DWIDTH 0 0
BBX 1 2 1 14
BITMAP
40
40
ENDCHAR
STARTCHAR uni0302.case
ENCODING -1
SWIDTH 0 0
DWIDTH 0 0
BBX 3 2 1 13
BITMAP
20
44
ENDCHAR
STARTCHAR uni0308.case
ENCODING -1
SWIDTH 0 0
DWIDTH 0 0
BBX 2 2 1 14
BITMAP
50
50
ENDCHAR
STARTCHAR uni0307.case
ENCODING -1
SWIDTH 0 0
DWIDTH 0 0
BBX 1 2 1 14
BITMAP
40
40
ENDCHAR
STARTCHAR gravecomb.case
ENCODING -1
SWIDTH 0 0
DWIDTH 0 0
BBX 1 1 1 15
BITMAP
40
ENDCHAR
STARTCHAR uni030A.case
ENCODING -1
SWIDTH 0 0
DWIDTH 0 0
BBX 2 3 1 13
BITMAP
50
50
50
ENDCHAR
STARTCHAR tildecomb.case
ENCODING -1
SWIDTH 0 0
DWIDTH 0 0
BBX 3 2 1 14
BITMAP
50
54
ENDCHAR
ENDFONT
